<svg xmlns="http://www.w3.org/2000/svg" viewBox="0 0 360 220"><rect width="360" height="220" rx="18" fill="#fff"/><circle cx="180" cy="106" r="84" fill="#fff" stroke="#172033" stroke-width="6"/><line x1="180.0" y1="37.0" x2="180.0" y2="28.0" stroke="#172033" stroke-width="3"/><line x1="214.5" y1="46.2" x2="219.0" y2="38.5" stroke="#172033" stroke-width="3"/><line x1="239.8" y1="71.5" x2="247.5" y2="67.0" stroke="#172033" stroke-width="3"/><line x1="249.0" y1="106.0" x2="258.0" y2="106.0" stroke="#172033" stroke-width="3"/><line x1="239.8" y1="140.5" x2="247.5" y2="145.0" stroke="#172033" stroke-width="3"/><line x1="214.5" y1="165.8" x2="219.0" y2="173.5" stroke="#172033" stroke-width="3"/><line x1="180.0" y1="175.0" x2="180.0" y2="184.0" stroke="#172033" stroke-width="3"/><line x1="145.5" y1="165.8" x2="141.0" y2="173.5" stroke="#172033" stroke-width="3"/><line x1="120.2" y1="140.5" x2="112.5" y2="145.0" stroke="#172033" stroke-width="3"/><line x1="111.0" y1="106.0" x2="102.0" y2="106.0" stroke="#172033" stroke-width="3"/><line x1="120.2" y1="71.5" x2="112.5" y2="67.0" stroke="#172033" stroke-width="3"/><line x1="145.5" y1="46.2" x2="141.0" y2="38.5" stroke="#172033" stroke-width="3"/><line x1="180" y1="106" x2="209.5" y2="133.0" stroke="#172033" stroke-width="7" stroke-linecap="round"/><line x1="180" y1="106" x2="209.0" y2="156.2" stroke="#3b82f6" stroke-width="5" stroke-linecap="round"/><circle cx="180" cy="106" r="7" fill="#172033"/></svg>